<?xml version="1.0" encoding="UTF-8" standalone="no"?>
<svg width="31px" height="30px" viewBox="0 0 31 30" version="1.1" xmlns="http://www.w3.org/2000/svg" xmlns:xlink="http://www.w3.org/1999/xlink">
    <!-- Generator: sketchtool 40 (33762) - http://www.bohemiancoding.com/sketch -->
    <title>620E1BEA-3927-411F-AE7F-B60DCB44E5B6</title>
    <desc>Created with sketchtool.</desc>
    <defs></defs>
    <g id="Welcome" stroke="none" stroke-width="1" fill="none" fill-rule="evenodd">
        <g id="header(mobile)" transform="translate(-40.000000, -25.000000)" fill="#4977BB">
            <g id="icon_menu" transform="translate(40.000000, 25.000000)">
                <path d="M30.75,3.75 C30.75,5.40675 29.40675,6.75 27.75,6.75 L3,6.75 C1.34325,6.75 0,5.40675 0,3.75 L0,3 C0,1.34325 1.34325,0 3,0 L27.75,0 C29.40675,0 30.75,1.34325 30.75,3 L30.75,3.75 Z" id="Fill-1"></path>
                <path d="M30.75,15.75 C30.75,17.40675 29.40675,18.75 27.75,18.75 L3,18.75 C1.34325,18.75 0,17.40675 0,15.75 L0,15 C0,13.34325 1.34325,12 3,12 L27.75,12 C29.40675,12 30.75,13.34325 30.75,15 L30.75,15.75 Z" id="Fill-3"></path>
                <path d="M30.75,27 C30.75,28.65675 29.40675,30 27.75,30 L3,30 C1.34325,30 0,28.65675 0,27 L0,26.25 C0,24.59325 1.34325,23.25 3,23.25 L27.75,23.25 C29.40675,23.25 30.75,24.59325 30.75,26.25 L30.75,27 Z" id="Fill-5"></path>
            </g>
        </g>
    </g>
</svg>